<svg width="32" height="32" viewBox="0 0 32 32" fill="none" xmlns="http://www.w3.org/2000/svg">
<g clip-path="url(#clip0_55_173)">
<path d="M14 30C14 28.896 14.896 28 16 28C17.104 28 18 28.896 18 30C18 31.104 17.104 32 16 32C14.896 32 14 31.104 14 30ZM17.3333 25.3333V24.6667C17.3333 24.2453 17.6587 23.744 17.916 23.6453C20.4173 22.6827 21.796 20.0667 21.192 17.4267C20.7467 15.472 19.1947 13.92 17.24 13.4747C15.616 13.104 13.9533 13.4773 12.676 14.496C11.3987 15.5147 10.6667 17.0333 10.6667 18.6667C10.6667 19.404 11.264 20 12 20C12.736 20 13.3333 19.404 13.3333 18.6667C13.3333 17.8507 13.7 17.0893 14.3387 16.5813C14.988 16.0627 15.8067 15.8853 16.6467 16.0747C17.5933 16.2907 18.376 17.0733 18.592 18.0213C18.9373 19.5347 18.0307 20.744 16.956 21.1587C15.6507 21.6613 14.6667 23.1707 14.6667 24.668V25.3347C14.6667 26.072 15.264 26.668 16 26.668C16.736 26.668 17.3333 26.0707 17.3333 25.3333ZM11.3333 30C11.3333 28.88 11.7467 27.864 12.4067 27.0587C12.1533 26.5347 12 25.9533 12 25.3333V24.6667C12 23.9813 12.1187 23.3013 12.3347 22.652C10.052 22.8307 8 20.984 8 18.6667C8 16.2187 9.09867 13.9387 11.0133 12.412C12.088 11.5533 13.3453 11.012 14.6667 10.7893V2.64532C14.6667 1.18799 13.4867 0.00399056 12.0293 -9.44e-06H12C9.472 -9.44e-06 7.348 1.76932 6.80267 4.13599C4.428 4.68266 2.65333 6.82399 2.66667 9.36266C1.00267 10.6147 0 12.576 0 14.668C0 15.8493 0.313333 16.984 0.914667 18.0013C0.314667 19.0187 0 20.1533 0 21.3347C0 23.5827 1.144 25.66 3.02267 26.888C3.98133 29.9267 6.772 32.0013 10 32.0013C10.5747 32.0013 11.1333 31.9347 11.6693 31.8093C11.6787 31.8067 11.6867 31.8027 11.696 31.8C11.464 31.2453 11.3333 30.6387 11.3333 30ZM32 14.6667C32 12.576 30.9973 10.6133 29.3333 9.36132C29.348 6.82266 27.5733 4.68132 25.1973 4.13466C24.652 1.76932 22.528 -0.00134277 20 -0.00134277H19.9707C18.5133 0.00265723 17.3333 1.18532 17.3333 2.64266V10.7867C17.5 10.8147 17.6667 10.8347 17.8333 10.872C20.78 11.544 23.12 13.884 23.792 16.832C24.6 20.364 23.0253 23.872 19.9907 25.6027C19.956 26.124 19.8187 26.6187 19.6027 27.068C20.2573 27.872 20.6667 28.8827 20.6667 29.9973C20.6667 30.6347 20.5373 31.2427 20.304 31.7973C20.3133 31.8 20.3213 31.804 20.3293 31.8053C20.8653 31.9307 21.4253 31.9973 22 31.9973C25.2293 31.9973 28.02 29.9227 28.9773 26.884C30.8547 25.656 32 23.5787 32 21.3307C32 20.1493 31.6867 19.0147 31.0853 17.9973C31.6853 16.98 32 15.8453 32 14.664V14.6667Z" fill="#E05F00"/>
</g>
<defs>
<clipPath id="clip0_55_173">
<rect width="32" height="32" fill="white"/>
</clipPath>
</defs>
</svg>
